<svg width="24" height="24" viewBox="0 0 24 24" fill="none" xmlns="http://www.w3.org/2000/svg">
<path d="M15 20H20V10L12 3L4 10V20H9C8.66667 17.6667 8.8 13 12 13C15.2 13 15.3333 17.6667 15 20Z" fill="#984801"/>
<path d="M3.99999 10L12 3L20 10L20 20H15V16C15 15.2044 14.6839 14.4413 14.1213 13.8787C13.5587 13.3161 12.7956 13 12 13C11.2043 13 10.4413 13.3161 9.87868 13.8787C9.31607 14.4413 9 15.2043 9 16V20H4L3.99999 10Z" stroke="#984801" stroke-width="1.5" stroke-linecap="round" stroke-linejoin="round"/>
</svg>
