<svg width="20" height="20" viewBox="0 0 20 20" fill="none" xmlns="http://www.w3.org/2000/svg">
<path d="M10 5.83333C10.3296 5.83333 10.6519 5.73559 10.9259 5.55245C11.2 5.36931 11.4136 5.10902 11.5398 4.80447C11.6659 4.49993 11.6989 4.16482 11.6346 3.84152C11.5703 3.51822 11.4116 3.22124 11.1785 2.98816C10.9454 2.75507 10.6484 2.59633 10.3251 2.53203C10.0018 2.46772 9.66673 2.50072 9.36219 2.62687C9.05765 2.75301 8.79735 2.96664 8.61421 3.24072C8.43108 3.5148 8.33333 3.83703 8.33333 4.16667C8.33333 4.60869 8.50892 5.03262 8.82148 5.34518C9.13405 5.65774 9.55797 5.83333 10 5.83333ZM10 14.1667C9.67036 14.1667 9.34813 14.2644 9.07405 14.4476C8.79996 14.6307 8.58634 14.891 8.4602 15.1955C8.33405 15.5001 8.30104 15.8352 8.36535 16.1585C8.42966 16.4818 8.5884 16.7788 8.82148 17.0118C9.05457 17.2449 9.35154 17.4037 9.67485 17.468C9.99815 17.5323 10.3333 17.4993 10.6378 17.3731C10.9423 17.247 11.2026 17.0334 11.3858 16.7593C11.5689 16.4852 11.6667 16.163 11.6667 15.8333C11.6667 15.3913 11.4911 14.9674 11.1785 14.6548C10.8659 14.3423 10.442 14.1667 10 14.1667ZM10 8.33333C9.67036 8.33333 9.34813 8.43108 9.07405 8.61422C8.79996 8.79735 8.58634 9.05765 8.4602 9.3622C8.33405 9.66674 8.30104 10.0018 8.36535 10.3252C8.42966 10.6485 8.5884 10.9454 8.82148 11.1785C9.05457 11.4116 9.35154 11.5703 9.67485 11.6346C9.99815 11.699 10.3333 11.6659 10.6378 11.5398C10.9423 11.4137 11.2026 11.2 11.3858 10.926C11.5689 10.6519 11.6667 10.3296 11.6667 10C11.6667 9.55797 11.4911 9.13405 11.1785 8.82149C10.8659 8.50893 10.442 8.33333 10 8.33333Z" fill="#212121"/>
</svg>
